# xmcd
#
# Track frame offsets:
#	150
#	9869
#	20757
#	37646
#	49082
#	67439
#	79745
#	95220
#	115325
#	125095
#	139567
#	152969
#	170753
#	184038
#
# Disc length: 2615 seconds
# Revision: 0
# Processed by: cddbd v1.5.2PL0 Copyright (c) Steve Scherf et al.
# Submitted via: dBpowerAMP V12.0
#
DISCID=c10a350e
DTITLE=Michelle Canning - The Next Eleven Miles
DYEAR=2018
DGENRE=Bluegrass
TTITLE0=Open Up Your Heart (And Let My Love Come In)
TTITLE1=Kickin' Our Hearts Around
TTITLE2='Til I Die
TTITLE3=Hallelujah, I'm Ready
TTITLE4=Hopelessly Yours
TTITLE5=The Guessing Game
TTITLE6=Blowin' Up a Storm
TTITLE7=The Next Eleven Miles
TTITLE8=I'll Come Running to You
TTITLE9=Butterfly
TTITLE10=Knock Three Times
TTITLE11=It'll Take Him Away
TTITLE12='Til the End of the World Goes Round
TTITLE13=Sparkle On
EXTD=
EXTT0=
EXTT1=
EXTT2=
EXTT3=
EXTT4=
EXTT5=
EXTT6=
EXTT7=
EXTT8=
EXTT9=
EXTT10=
EXTT11=
EXTT12=
EXTT13=
PLAYORDER=
